<svg width="110" height="18" viewBox="0 0 110 18" fill="none" xmlns="http://www.w3.org/2000/svg">
<g clipPath="url(#clip0)">
<path d="M30.6405 13.3931C30.2771 13.7522 29.8364 13.9356 29.3184 13.9356C28.8003 13.9356 28.3673 13.7522 27.9962 13.3931C27.6328 13.0341 27.4473 12.5986 27.4473 12.0867C27.4473 11.5748 27.6328 11.147 27.9962 10.7802C28.3596 10.4212 28.8003 10.2378 29.3184 10.2378C29.8364 10.2378 30.2694 10.4212 30.6405 10.7802C31.0039 11.1393 31.1894 11.5748 31.1894 12.0867C31.1894 12.5986 31.0116 13.0341 30.6405 13.3931Z" fill="white"/>
<path d="M39.6715 2.48282C40.8777 2.48282 41.8596 2.88011 42.6405 3.67467C43.4291 4.46924 43.8312 5.56941 43.8312 6.97518V13.4158C43.8312 13.5456 43.7307 13.645 43.5992 13.645H41.2256C41.0941 13.645 40.9936 13.5456 40.9936 13.4158V7.33427C40.9936 6.60846 40.7926 6.05837 40.3983 5.68401C40.004 5.29437 39.4782 5.09573 38.8133 5.09573C38.0787 5.09573 36.3932 5.09573 36.3932 5.09573C36.3932 5.09573 36.3932 6.89878 36.3932 7.79267V13.431C36.3932 13.5609 36.2927 13.6602 36.1613 13.6602H33.7876C33.6562 13.6602 33.5557 13.5609 33.5557 13.431V2.64326C33.5557 2.51338 33.6562 2.41406 33.7876 2.41406H36.3932C37.6303 2.41406 38.1793 2.48282 39.6715 2.48282Z" fill="white"/>
<path d="M47.8752 9.37457C48.2541 10.7345 49.2902 11.4145 50.9757 11.4145C51.9808 11.4145 52.7617 11.1012 53.3184 10.4747C53.388 10.3907 53.5117 10.3678 53.6045 10.4213L55.4988 11.4985C55.6225 11.5673 55.6534 11.7353 55.5683 11.8423C54.4859 13.2481 52.9395 13.951 50.9293 13.951C49.1123 13.951 47.651 13.4085 46.5531 12.3236C45.4552 11.2387 44.9062 9.87117 44.9062 8.21328C44.9062 6.5783 45.4475 5.21073 46.5299 4.12584C47.6124 3.02567 49.0041 2.47559 50.7051 2.47559C52.321 2.47559 53.6431 3.02567 54.6869 4.12584C55.7462 5.22601 56.2719 6.58594 56.2719 8.21328C56.2719 8.51888 56.2487 8.83212 56.1946 9.16829C56.1792 9.28289 56.0786 9.36693 55.9627 9.36693H47.8752V9.37457ZM47.8366 7.19715H53.4421C53.2797 6.45606 52.9473 5.90598 52.4292 5.54689C51.9344 5.18781 51.3623 5.00445 50.7128 5.00445C49.9474 5.00445 49.3211 5.20309 48.8185 5.59273C48.3237 5.9671 47.9912 6.5019 47.8366 7.19715Z" fill="white"/>
<path d="M62.4497 5.48557H60.1998V10.0085C60.1998 10.3829 60.2926 10.6579 60.4859 10.8336C60.6792 11.0093 60.9575 11.1087 61.3209 11.1392C61.6302 11.1545 62.0013 11.1469 62.4343 11.1316C62.5657 11.1239 62.6817 11.2309 62.6817 11.3608V13.4542C62.6817 13.5688 62.5889 13.6757 62.4652 13.6834C60.625 13.8667 59.3184 13.6757 58.5452 13.118C57.7565 12.5374 57.3545 11.5059 57.3545 10.0085V5.48557V2.78862V0.229202C57.3545 0.0993209 57.455 0 57.5864 0H59.9601C60.0915 0 60.192 0.0993209 60.192 0.229202V2.78862H62.442C62.5734 2.78862 62.6739 2.88795 62.6739 3.01783V5.25637C62.6817 5.37861 62.5734 5.48557 62.4497 5.48557Z" fill="white"/>
<path d="M76.6373 2.78857H79.1578C79.3125 2.78857 79.4285 2.94138 79.3821 3.08654L76.0342 13.4923C76.0033 13.584 75.9105 13.6528 75.81 13.6528H73.4441C73.3435 13.6528 73.2508 13.584 73.2198 13.4923L71.2482 7.06701L69.2766 13.4923C69.2457 13.5916 69.1607 13.6528 69.0524 13.6528H66.6865C66.586 13.6528 66.4932 13.5916 66.4623 13.4923L63.1221 3.08654C63.0757 2.94138 63.184 2.78857 63.3464 2.78857H65.8669C65.9674 2.78857 66.0602 2.85733 66.0911 2.95666L67.9158 9.45835L69.8642 2.94902C69.8952 2.84969 69.9802 2.78857 70.0885 2.78857H72.4235C72.524 2.78857 72.6168 2.85733 72.6477 2.94902L74.6038 9.48127L76.4285 2.95666C76.444 2.85733 76.5368 2.78857 76.6373 2.78857Z" fill="white"/>
<path d="M89.1706 12.308C88.0418 13.4082 86.6655 13.9583 85.0341 13.9583C83.4104 13.9583 82.0264 13.4082 80.8976 12.308C79.7842 11.1926 79.2275 9.83266 79.2275 8.2206C79.2275 6.61619 79.7842 5.25626 80.8976 4.15609C82.0264 3.04064 83.4027 2.48291 85.0341 2.48291C86.6655 2.48291 88.0418 3.04064 89.1706 4.15609C90.2994 5.25626 90.8639 6.60855 90.8639 8.2206C90.8639 9.83266 90.2994 11.1926 89.1706 12.308ZM82.9001 10.3751C83.4723 10.9405 84.1836 11.2231 85.0341 11.2231C85.8846 11.2231 86.5959 10.9405 87.1681 10.3751C87.7402 9.80974 88.0263 9.09157 88.0263 8.2206C88.0263 7.34963 87.7402 6.63147 87.1681 6.0661C86.5959 5.50074 85.8846 5.21805 85.0341 5.21805C84.1836 5.21805 83.4723 5.50074 82.9001 6.0661C82.3434 6.63147 82.0651 7.34963 82.0651 8.2206C82.0651 9.09157 82.3434 9.80974 82.9001 10.3751Z" fill="white"/>
<path d="M97.8994 2.71211V5.05761C97.8994 5.18749 97.7989 5.28682 97.6674 5.28682H95.5798C95.0154 5.28682 94.5592 5.73758 94.5592 6.2953V8.45744V13.4235C94.5592 13.5534 94.4587 13.6527 94.3273 13.6527H91.9536C91.8222 13.6527 91.7217 13.5534 91.7217 13.4235V5.09581C91.7217 3.65184 92.9046 2.48291 94.3659 2.48291H97.6674C97.7911 2.48291 97.8994 2.58987 97.8994 2.71211Z" fill="white"/>
<path d="M101.859 8.72496V13.4312C101.859 13.5611 101.759 13.6604 101.627 13.6604H99.2534C99.122 13.6604 99.0215 13.5611 99.0215 13.4312V0.229202C99.0215 0.0993209 99.122 0 99.2534 0H101.627C101.759 0 101.859 0.0993209 101.859 0.229202V8.72496Z" fill="white"/>
<path d="M106.026 7.93784C105.887 8.10592 105.887 8.34276 106.026 8.51084L109.946 13.2706C110.07 13.4234 109.961 13.645 109.753 13.645H106.722C106.575 13.645 106.436 13.5762 106.343 13.4692L102.261 8.51084C102.121 8.34276 102.121 8.10592 102.261 7.93784L106.343 2.97943C106.436 2.86483 106.575 2.80371 106.722 2.80371H109.753C109.954 2.80371 110.07 3.02527 109.946 3.17807L106.026 7.93784Z" fill="white"/>
<path d="M25.0588 6.98304C25.0047 5.57727 24.6645 4.4771 23.8681 3.68253C23.0872 2.88797 22.0975 2.57472 20.8991 2.49068C20.3424 2.45248 19.1672 2.399 17.9765 2.39136C16.4997 2.38372 15.023 2.41428 15.023 2.41428C14.8915 2.41428 14.791 2.5136 14.791 2.64349V4.38542V11.8956V13.6375V18H17.6286V15.8761V11.1927C17.6286 11.1927 17.6286 10.7649 17.6286 10.2224C17.6286 9.64943 17.6286 8.95418 17.6286 8.49578V7.78525V5.08831C17.6286 5.08831 19.3141 5.08831 20.0486 5.08831C20.7058 5.08831 21.2393 5.28695 21.6336 5.67659C22.028 6.05095 22.229 6.60104 22.229 7.32685V7.44145V8.95418C22.229 9.67999 22.028 10.2301 21.6336 10.6044C21.2393 10.9941 20.7136 11.1927 20.0486 11.1927C19.5538 11.1927 18.077 11.1927 18.077 11.1927V13.798C18.9894 13.8056 19.6079 13.8515 20.9069 13.798C22.113 13.7521 23.1027 13.4007 23.8759 12.6061C24.5949 11.8803 24.966 10.8948 25.0356 9.67235C25.0434 9.64943 25.0665 9.63415 25.0665 9.60359C25.0588 9.60359 25.1207 8.48814 25.0588 6.98304Z" fill="white"/>
<path fillRule="evenodd" clipRule="evenodd" d="M11.3665 2.41406H12.4103L13.2298 3.44547L12.7041 4.10252L11.3665 2.41406ZM13.4542 3.16268L13.7325 2.81124C13.8562 2.6508 13.748 2.4216 13.5392 2.4216H12.8666L13.4542 3.16268ZM8.36668 4.7824L7.85639 5.42417L9.7584 7.83079C9.76227 7.82697 9.7642 7.82315 9.76614 7.81933C9.76807 7.81551 9.77 7.81169 9.77387 7.80787L10.2687 7.18902L8.36668 4.7824ZM11.6524 13.79H12.6112L6.88966 6.65416L6.41029 7.25008L11.6524 13.79ZM13.0675 13.7902L7.11408 6.36408L7.63211 5.71467L13.7479 13.4311C13.833 13.5916 13.7325 13.7902 13.5392 13.7902H13.0675ZM9.33303 3.55994L9.84333 2.91818L11.7453 5.31716L11.235 5.95893L9.33303 3.55994ZM9.10876 3.8426L8.59073 4.49964L10.4927 6.89862L11.0108 6.24158L9.10876 3.8426ZM6.18618 7.5406L5.97743 7.808C5.83825 7.98372 5.83825 8.23584 5.97743 8.41156L10.0985 13.6144C10.1912 13.7291 10.3304 13.7978 10.4851 13.7978H11.2041L6.18618 7.5406ZM10.4851 2.41406H10.9181L12.4799 4.3852L11.9774 5.02697L10.0753 2.62798L10.0985 2.59742C10.1913 2.48282 10.3382 2.41406 10.4851 2.41406Z" fill="url(#paint0_radial)"/>
<path d="M4.01293 7.8008C4.15211 7.97652 4.15211 8.22864 4.01293 8.40436L0.0542636 13.401C-0.0694449 13.5614 0.0388 13.7906 0.247558 13.7906H3.30934C3.45625 13.7906 3.60315 13.7218 3.69593 13.6072L7.80924 8.40436C7.94841 8.22864 7.94841 7.97652 7.80924 7.8008L3.6882 2.59791C3.59542 2.48331 3.45625 2.41455 3.30161 2.41455H0.247558C0.0465318 2.41455 -0.0694449 2.65139 0.0542636 2.80419L4.01293 7.8008Z" fill="white"/>
</g>
<defs>
<radialGradient id="paint0_radial" cx="0" cy="0" r="1" gradientUnits="userSpaceOnUse" gradientTransform="translate(20.8194 10.9285) rotate(-166.761) scale(14.0354 34.6254)">
<stop stopColor="white"/>
<stop offset="1" stopColor="white" stopOpacity="0.71"/>
</radialGradient>
<clipPath id="clip0">
<rect width="110" height="18" fill="white"/>
</clipPath>
</defs>
</svg>
